HIERARCHY
ROOT Hips
{
   OFFSET 0.00000 0.00000 0.00000
   CHANNELS 6 Xposition Yposition Zposition Zrotation Xrotation Yrotation
   JOINT RightUpLeg
   {
      OFFSET -8.945800 -8.667070 0.101652
      CHANNELS 3 Zrotation Xrotation Yrotation
      JOINT RightLeg
      {
         OFFSET 0.000000 -44.422697 1.372700
         CHANNELS 3 Zrotation Xrotation Yrotation
         JOINT RightFoot
         {
            OFFSET 0.253549 -42.092399 -1.460590
            CHANNELS 3 Zrotation Xrotation Yrotation
            JOINT RightToes
            {
               OFFSET 0.040000 -4.415090 8.499099
               CHANNELS 3 Zrotation Xrotation Yrotation
               End Site
               {
                  OFFSET -0.080000 -0.137448 9.779790
               }
            }
         }
      }
   }
   JOINT Spine
   {
      OFFSET 0.000000 11.890501 0.000000
      CHANNELS 3 Zrotation Xrotation Yrotation
      JOINT Spine1
      {
         OFFSET 0.000000 25.657401 0.127663
         CHANNELS 3 Zrotation Xrotation Yrotation
         JOINT HEad
         {
            OFFSET 0.000000 8.734161 0.011341
            CHANNELS 3 Zrotation Xrotation Yrotation
            End Site
            {
               OFFSET -0.290000 12.774200 2.513950
            }
         }
         JOINT LeftShoulder1
         {
            OFFSET 8.990000 -0.362252 -0.220000
            CHANNELS 3 Zrotation Xrotation Yrotation
            JOINT LeftArm
            {
               OFFSET 10.282700 -0.003380 0.322123
               CHANNELS 3 Zrotation Xrotation Yrotation
               JOINT LeftForeArm
               {
                  OFFSET 32.766900 0.099144 -1.424340
                  CHANNELS 3 Zrotation Xrotation Yrotation
                  JOINT LeftHand
                  {
                     OFFSET 27.564301 0.085362 1.022160
                     CHANNELS 3 Zrotation Xrotation Yrotation
                     End Site
                     {
                        OFFSET 16.744301 -0.600000 1.502910
                     }
                  }
               }
            }
         }
         JOINT RightShoulder
         {
            OFFSET -8.990000 -0.362252 -0.220000
            CHANNELS 3 Zrotation Xrotation Yrotation
            JOINT RightArm
            {
               OFFSET -10.282700 -0.003380 0.322123
               CHANNELS 3 Zrotation Xrotation Yrotation
               JOINT RightForeArm
               {
                  OFFSET -32.897098 0.099144 -1.424340
                  CHANNELS 3 Zrotation Xrotation Yrotation
                  JOINT RightHand
                  {
                     OFFSET -27.492101 0.085362 1.022160
                     CHANNELS 3 Zrotation Xrotation Yrotation
                     End Site
                     {
                        OFFSET -16.631201 -0.600000 1.502910
                     }
                  }
               }
            }
         }
      }
   }
   JOINT LeftUpLeg
   {
      OFFSET 8.945800 -8.667070 0.101652
      CHANNELS 3 Zrotation Xrotation Yrotation
      JOINT LeftLeg
      {
         OFFSET 0.000000 -44.422697 1.372700
         CHANNELS 3 Zrotation Xrotation Yrotation
         JOINT LeftFoot
         {
            OFFSET -0.253549 -42.092399 -1.460590
            CHANNELS 3 Zrotation Xrotation Yrotation
            JOINT LeftToes
            {
               OFFSET -0.040000 -4.415090 8.499099
               CHANNELS 3 Zrotation Xrotation Yrotation
               End Site
               {
                  OFFSET 0.080000 -0.047448 9.779790
               }
            }
         }
      }
   }
}
MOTION
Frames: 10
Frame Time: 0.016667
-854.169 99.1973 448.05 -21.5365 15.8246 -106.803 -37.9899 0.521455 44.5465 94.2174 10.6489 -72.406 -24.3959 9.12008 -5.01104 0.0462048 0.000533403 0.662642 2.28597 21.1446 -3.40114 0.0473232 0.06478 0.0610076 11.6552 8.80226 -26.1284 8.82781e-032 -7.95139e-016 6.36111e-015 -114.83 -22.3237 -86.597 -79.9777 35.2735 -23.2999 7.2676 24.8645 -8.79821 11.9864 11.1545 -1.50719 134.369 -28.2289 101.934 67.7313 52.6686 33.1606 14.3613 26.5548 0.84501 4.27524 0.968408 -10.0619 -22.7544 11.0684 50.8137 70.0827 3.52107 2.02877 4.04755e-009 1.55984e-007 -4.8394e-009 
-853.532 99.3889 447.813 -19.8694 14.9384 -106.34 -37.3755 -0.734046 45.3905 93.832 9.12863 -67.3414 -22.985 9.418 -5.74983 0.0462048 0.000533403 0.662642 2.69063 21.412 -1.59039 0.0007589 -0.01592 -0.02183 10.802 5.65683 -26.7558 7.95139e-016 0 -0 -120.68 -22.488 -91.9221 -86.9468 39.0839 -15.9347 11.9568 25.5853 -12.6691 21.7214 8.54896 4.28863 128.982 -33.5485 109.395 66.5262 53.1044 33.7855 14.6302 26.2167 -0.118608 5.0402 -1.25878 -8.60852 -23.6905 11.5276 49.8619 67.3548 2.77024 2.58999 4.04755e-009 1.55984e-007 -4.83941e-009 
-854.955 99.1624 446.558 -18.5606 14.1973 -105.754 -35.795 -1.42919 45.4303 90.7044 7.82565 -64.96 -21.9853 6.94587 -4.00736 0.0462048 0.000533403 0.662642 3.07193 21.603 -0.0880137 -0.0012412 -0.01984 -0.02378 9.92662 3.13629 -27.4079 7.95139e-016 1.98785e-016 -0 -124.448 -21.6498 -94.6014 -92.2931 40.7141 -10.6757 11.5987 18.4677 -11.1152 22.2552 6.16373 2.27445 129.039 -32.9211 108.999 65.6956 53.4196 34.3631 14.4678 25.9593 -1.63747 7.86735 -3.01723 -7.69589 -29.3297 13.8963 52.0713 64.268 -1.36623 5.24733 4.04755e-009 1.55984e-007 -4.8394e-009 
-856.474 98.8451 445.334 -17.6023 13.6418 -105.065 -32.9967 -1.7334 44.1835 85.0198 8.29119 -61.1254 -19.5153 4.89589 -3.1694 0.0462048 0.000533403 0.662642 3.39235 21.3396 1.30499 -0.00113427 -0.0143 -0.0243991 9.21414 1.68155 -28.2343 4.41391e-032 -3.97569e-016 6.36111e-015 -126.311 -20.7882 -94.785 -95.8768 41.0381 -7.43146 14.7405 20.2688 -13.493 23.0136 4.53246 0.0582762 129.086 -33.3569 108.091 65.1516 53.7692 34.8362 15.2417 26.1525 -2.02867 10.4206 -4.05801 -7.0147 -34.2525 15.8249 54.1564 61.0828 -5.29058 7.17165 4.04755e-009 1.55984e-007 -4.8394e-009 
-858.053 98.4895 444.147 -16.9756 13.3121 -104.29 -29.2031 -1.93473 41.8387 77.6594 11.2299 -55.4585 -15.1399 3.59552 -3.22649 0.0462048 0.000533403 0.662642 3.60973 20.7354 2.54169 -0.000275671 -0.00831 -0.0248621 8.79468 1.18519 -29.1178 7.95139e-016 -1.98785e-016 -0 -126.682 -20.2241 -93.0879 -97.977 40.6655 -5.75549 14.6254 17.4407 -13.1445 23.9433 3.55138 -2.30581 129.066 -34.589 106.751 64.819 54.1385 35.2315 15.5565 26.405 -2.66205 12.8996 -4.61689 -6.62273 -38.8455 17.562 56.3342 57.7681 -9.19205 8.53382 4.04755e-009 1.55984e-007 -4.8394e-009 
-859.661 97.8873 442.835 -16.702 13.2748 -103.369 -25.4615 -3.34058 38.4884 73.5528 15.7467 -51.6248 -10.8393 4.86199 -3.63239 0.0462048 0.000533403 0.662642 3.78577 19.9259 3.51739 0.00113659 -0.00271001 -0.0251688 8.73927 1.52089 -29.9868 0 3.97569e-016 -0 -125.873 -19.9825 -89.7667 -96.5332 35.7465 -8.63367 13.7296 24.089 -13.8569 25.1324 3.09455 -4.69706 128.848 -36.5132 105.091 64.6678 54.5317 35.5982 16.2931 26.7984 -2.62144 15.8892 -4.98387 -6.55317 -44.1377 19.4786 59.2256 54.3222 -13.6008 9.47208 4.04755e-009 1.55984e-007 -4.83941e-009 
-861.386 97.2209 441.423 -18.2175 14.606 -100.81 -21.6008 -4.14981 34.1813 71.7484 21.5156 -49.0487 -4.61366 7.18426 -4.95984 0.0462048 0.000533403 0.662642 5.17679 20.4935 2.86393 0.00290492 0.00263998 -0.0253192 9.06364 2.55241 -30.8125 0 0 -0 -124.137 -19.9447 -85.2454 -96.0679 32.9781 -10.0344 12.1649 25.8577 -13.6791 26.6024 3.04975 -6.99271 128.398 -39.0522 103.234 64.6723 54.946 35.9557 16.6659 27.1323 -2.70315 19.8451 -3.8496 -8.50755 -49.6031 21.3986 62.5773 50.4083 -18.3031 9.70862 4.04755e-009 1.55984e-007 -4.8394e-009 
-863.26 96.6596 439.954 -21.5013 16.8591 -96.8693 -17.7008 -4.29767 28.9236 69.7727 27.5022 -46.074 1.28918 9.69907 -6.93316 0.0462048 0.000533403 0.662642 7.5415 22.2602 0.868837 0.00483177 0.00793997 -0.0253131 9.74421 4.14604 -31.6003 -7.95139e-016 0 -0 -121.703 -19.9764 -79.9792 -95.9191 31.522 -10.8708 13.1899 28.9873 -15.0057 28.3483 3.33926 -9.11259 127.731 -42.1 101.291 64.8124 55.3764 36.3163 17.2658 27.4089 -2.40075 24.4787 -1.50238 -12.4063 -54.652 23.1824 66.0034 45.7064 -22.9147 8.99714 4.04755e-009 1.55984e-007 -4.8394e-009 
-865.264 96.3132 438.448 -26.5624 19.5995 -91.7069 -13.8051 -3.65831 22.5636 66.6885 32.556 -43.0802 3.35587 12.1479 -8.71349 0.0462048 0.000533403 0.662642 10.8379 25.0426 -2.26671 0.00671961 0.01345 -0.0251505 10.7309 6.17251 -32.3756 1.59028e-015 -3.97569e-016 -0 -118.792 -19.9637 -74.3039 -95.8533 30.8368 -11.4487 13.0926 29.8044 -15.5424 30.3597 3.91264 -11.0122 126.895 -45.5161 99.3601 65.0647 55.8099 36.6374 17.584 27.548 -2.16557 29.7856 1.79106 -18.1789 -58.8122 24.7133 69.0337 40.0077 -26.9923 7.25094 4.04756e-009 1.55984e-007 -4.8394e-009 
-867.363 95.9783 436.905 -31.4046 21.7374 -86.8694 -11.3571 -4.0909 16.0761 62.6551 36.8902 -39.7006 6.5912 14.3933 -10.6792 0.0462048 0.000533403 0.662642 13.7896 27.0623 -5.176 0.00899764 0.01915 -0.0248312 11.9665 8.52721 -33.1751 1.59028e-015 0 -0 -115.589 -19.8677 -68.4683 -95.7886 30.5678 -11.8936 14.3056 31.6006 -16.6302 32.6428 4.74541 -12.719 125.927 -49.1333 97.4859 65.418 56.2533 36.8676 17.9745 27.56 -1.71394 35.1711 4.45438 -24.1006 -62.3833 26.0097 71.7575 33.377 -30.5336 4.54428 4.04755e-009 1.55984e-007 -4.83941e-009 
